<svg width="290" height="290" viewBox="0 0 290 290" fill="none" xmlns="http://www.w3.org/2000/svg">
<path fill-rule="evenodd" clip-rule="evenodd" d="M103.509 86.112C95.9799 89.591 87.1429 104.566 84.9519 117.56C82.6209 131.374 85.1609 146.678 92.0929 160.591C96.9789 170.398 100.243 174.888 108.778 183.549C135.609 210.774 173.764 216.037 199.672 196.086C208.135 189.569 209.832 182.34 205.895 169.574C203.282 161.101 200.146 154.823 193.892 145.55C175.168 117.786 145.985 93.527 122.654 86.333C114.267 83.747 108.764 83.683 103.509 86.112ZM122.009 89.411C135.359 93.55 154.203 106.437 169.997 122.231C183.279 135.514 192.486 147.921 198.557 160.719C206.179 176.788 206.567 187.079 199.708 191.261C180.504 202.971 123.884 160.399 104.557 119.719C98.5459 107.069 97.4009 98.368 100.975 92.507C104.089 87.399 111.838 86.259 122.009 89.411ZM99.0649 115.916C109.457 141.785 139.075 173.745 165.9 188.038C175.385 193.092 184.086 196.219 188.666 196.219C193.35 196.219 192.828 197.623 187.259 200.002C178.973 203.543 173.766 204.568 164.009 204.58C124.166 204.628 87.7999 168.259 87.6519 128.219C87.6149 118.166 89.3799 110.225 93.3129 102.749L95.4329 98.719L96.0829 104.416C96.4409 107.549 97.7829 112.724 99.0649 115.916ZM159.009 131.238C159.009 131.799 162.215 135.961 166.132 140.488C177.523 153.649 185.496 166.533 188.521 176.667C189.169 178.839 190.286 180.811 191.004 181.051C193.241 181.796 191.518 173.817 187.737 165.922C180.526 150.863 159.009 124.886 159.009 131.238Z" fill="#0FB1BF"/>
<circle cx="145.009" cy="145.219" r="143.376" stroke="#0FB1BF" stroke-width="2"/>
</svg>
