<svg width="23" height="23" viewBox="0 0 23 23" fill="none" xmlns="http://www.w3.org/2000/svg">
<path d="M10.1261 3.05426C10.5734 2.02315 12.0357 2.02315 12.4831 3.05426C12.8122 3.81296 13.7621 4.06747 14.4265 3.575C15.3294 2.9057 16.5958 3.63684 16.4677 4.75347C16.3734 5.5751 17.0687 6.27046 17.8904 6.17616C19.007 6.04802 19.7381 7.31438 19.0688 8.21734C18.5764 8.88175 18.8309 9.83162 19.5896 10.1608C20.6207 10.6081 20.6207 12.0704 19.5896 12.5177C18.8309 12.8469 18.5764 13.7967 19.0688 14.4612C19.7381 15.3641 19.007 16.6305 17.8904 16.5023C17.0687 16.408 16.3734 17.1034 16.4677 17.925C16.5958 19.0417 15.3294 19.7728 14.4265 19.1035C13.7621 18.611 12.8122 18.8655 12.4831 19.6242C12.0357 20.6553 10.5734 20.6553 10.1261 19.6242C9.79695 18.8655 8.84708 18.611 8.18267 19.1035C7.27972 19.7728 6.01335 19.0417 6.1415 17.925C6.23579 17.1034 5.54043 16.408 4.71881 16.5023C3.60217 16.6305 2.87104 15.3641 3.54033 14.4612C4.0328 13.7967 3.77829 12.8469 3.01959 12.5177C1.98848 12.0704 1.98848 10.6081 3.01959 10.1608C3.77829 9.83162 4.0328 8.88175 3.54033 8.21734C2.87104 7.31438 3.60217 6.04802 4.71881 6.17616C5.54043 6.27046 6.23579 5.5751 6.1415 4.75347C6.01335 3.63684 7.27972 2.9057 8.18267 3.575C8.84708 4.06747 9.79695 3.81296 10.1261 3.05426Z" fill="#0FB1BF"/>
<path d="M9.09101 11.963C8.60434 11.963 8.21101 11.7863 7.91101 11.433C7.61101 11.0797 7.46101 10.6197 7.46101 10.053C7.46101 9.48634 7.61101 9.02634 7.91101 8.673C8.21101 8.31967 8.60434 8.143 9.09101 8.143C9.57768 8.143 9.96768 8.31967 10.261 8.673C10.561 9.01967 10.711 9.47967 10.711 10.053C10.711 10.6263 10.561 11.0897 10.261 11.443C9.96768 11.7897 9.57768 11.963 9.09101 11.963ZM13.311 8.203H14.081L9.30101 15.203H8.53101L13.311 8.203ZM9.09101 11.393C9.39768 11.393 9.63768 11.2763 9.81101 11.043C9.98434 10.803 10.071 10.473 10.071 10.053C10.071 9.633 9.98434 9.30634 9.81101 9.073C9.63768 8.833 9.39768 8.713 9.09101 8.713C8.79101 8.713 8.55101 8.833 8.37101 9.073C8.19768 9.313 8.11101 9.63967 8.11101 10.053C8.11101 10.4663 8.19768 10.793 8.37101 11.033C8.55101 11.273 8.79101 11.393 9.09101 11.393ZM13.521 15.263C13.0343 15.263 12.641 15.0897 12.341 14.743C12.0477 14.3897 11.901 13.9263 11.901 13.353C11.901 12.7797 12.0477 12.3197 12.341 11.973C12.641 11.6197 13.0343 11.443 13.521 11.443C14.0077 11.443 14.401 11.6197 14.701 11.973C15.001 12.3263 15.151 12.7863 15.151 13.353C15.151 13.9197 15.001 14.3797 14.701 14.733C14.401 15.0863 14.0077 15.263 13.521 15.263ZM13.521 14.693C13.821 14.693 14.0577 14.573 14.231 14.333C14.411 14.093 14.501 13.7663 14.501 13.353C14.501 12.9397 14.411 12.613 14.231 12.373C14.0577 12.133 13.821 12.013 13.521 12.013C13.2143 12.013 12.9743 12.133 12.801 12.373C12.6277 12.6063 12.541 12.933 12.541 13.353C12.541 13.773 12.6277 14.103 12.801 14.343C12.9743 14.5763 13.2143 14.693 13.521 14.693Z" fill="white"/>
</svg>
