<svg width="221" height="17" viewBox="0 0 221 17" fill="none" xmlns="http://www.w3.org/2000/svg">
<path d="M7.91741 16.7188H0V0.259521H7.36297C10.8892 0.259521 13.24 1.90329 13.24 4.67174C13.24 6.3155 12.1533 7.65647 10.6896 8.19718C12.6412 8.47835 14.1271 10.1654 14.1271 12.0471C14.1271 15.0102 11.7098 16.7188 7.91741 16.7188ZM6.12102 3.93637H5.2561V7.00761H6.12102C7.65128 7.00761 8.4275 6.48853 8.4275 5.4071C8.4275 4.30405 7.60693 3.93637 6.12102 3.93637ZM6.98595 9.99235H5.27827V13.0636H6.98595C8.56056 13.0636 9.13718 12.4796 9.13718 11.4631C9.13718 10.4465 8.36096 9.99235 6.98595 9.99235Z" fill="white"/>
<path d="M29.7623 16.7188L28.853 13.7124H23.9074L22.9981 16.7188H17.6311L23.486 0.259521H29.5848L35.4397 16.7188H29.7623ZM26.3913 5.58013L25.1271 9.75443H27.6776L26.3913 5.58013Z" fill="white"/>
<path d="M47.4824 17C42.8029 17 39.2988 14.6641 39.2988 9.14883V0.259521H44.9319V9.71117C44.9319 11.4847 45.9078 12.6094 47.4824 12.6094C49.057 12.6094 50.0328 11.4847 50.0328 9.71117V0.259521H55.6659V9.14883C55.6659 14.6425 52.1397 17 47.4824 17Z" fill="white"/>
<path d="M67.2203 17C64.4703 17 62.0973 16.0267 60.5227 14.7074L62.7626 11.2036C64.3373 12.4148 65.6901 12.9771 67.1538 12.9771C67.9522 12.9771 68.551 12.631 68.551 12.0687C68.551 11.2901 67.9079 10.9873 65.8453 10.3817C62.7626 9.47328 61.2102 8.17557 61.2102 5.47201C61.2102 1.92494 64.0933 0 68.174 0C70.3696 0 72.5208 0.778626 73.6519 1.66539L71.4341 5.25572C70.2809 4.45547 69.2163 4.0229 67.9744 4.0229C66.9099 4.0229 66.5107 4.4771 66.5107 4.95293C66.5107 5.47201 66.9099 5.79644 69.1276 6.42366C72.166 7.2888 73.8515 8.43511 73.8515 11.5064C73.8293 14.7939 71.301 17 67.2203 17Z" fill="white"/>
<path d="M87.3355 17C82.2125 17 78.531 13.4962 78.531 8.56489C78.531 3.65522 82.3456 0 87.4242 0C90.1299 0 91.9263 1.12468 93.39 2.33588L90.6178 6.01272C89.6642 5.10433 88.7771 4.4771 87.3133 4.4771C85.4504 4.4771 84.0532 6.05598 84.0532 8.43511C84.0532 10.7926 85.4061 12.5013 87.646 12.5013C88.888 12.5013 90.0412 11.9606 91.0392 11.0522L93.7449 14.6425C92.1259 16.0267 90.3073 17 87.3355 17Z" fill="white"/>
<path d="M108.981 16.7188V10.9656H104.723V16.7188H99.0896V0.259521H104.723V6.3155H108.981V0.259521H114.614V16.7188H108.981Z" fill="white"/>
<path d="M146.395 16.7188V0.259521H151.806V12.5229H157.328V16.7188H146.395Z" fill="white"/>
<path d="M169.504 17C164.203 17 160.433 13.4313 160.433 8.52163C160.433 3.61196 164.247 0 169.548 0C174.848 0 178.596 3.5687 178.596 8.47837C178.596 13.388 174.782 17 169.504 17ZM169.504 4.36896C167.441 4.36896 165.977 6.09924 165.977 8.47837C165.977 10.8359 167.508 12.631 169.57 12.631C171.633 12.631 173.096 10.9008 173.096 8.52163C173.074 6.14249 171.566 4.36896 169.504 4.36896Z" fill="white"/>
<path d="M195.917 16.7188V8.69464L193.3 13.4745H190.728L188.044 8.69464V16.7188H182.721V0.259521H188.199L192.058 6.83459L195.607 0.28115H201.55V16.7404H195.917V16.7188Z" fill="white"/>
<path d="M214.812 16.7188H206.873V0.259521H214.258C217.806 0.259521 220.135 1.90329 220.135 4.67174C220.135 6.3155 219.048 7.65647 217.585 8.19718C219.514 8.47835 221 10.1654 221 12.0471C221 15.0102 218.605 16.7188 214.812 16.7188ZM213.016 3.93637H212.151V7.00761H213.016C214.546 7.00761 215.322 6.48853 215.322 5.4071C215.322 4.30405 214.502 3.93637 213.016 3.93637ZM213.859 9.99235H212.151V13.0636H213.859C215.433 13.0636 216.01 12.4796 216.01 11.4631C216.01 10.4465 215.256 9.99235 213.859 9.99235Z" fill="white"/>
<path d="M133.243 5.81799H127.788V11.1602H133.243V5.81799Z" fill="white"/>
<path d="M133.243 0.259521H127.788V5.81805H133.243V0.259521Z" fill="white"/>
<path d="M133.243 11.1603H127.788V16.7188H133.243V11.1603Z" fill="white"/>
<path d="M127.787 5.81799H122.066V11.1602H127.787V5.81799Z" fill="white"/>
<path d="M138.943 5.81799H133.243V11.1602H138.943V5.81799Z" fill="white"/>
</svg>
