<svg width="44" height="45" viewBox="0 0 44 45" fill="none" xmlns="http://www.w3.org/2000/svg">
<path d="M19.8081 6.25657C20.6836 4.23861 23.5454 4.23862 24.4208 6.25657C25.065 7.74139 26.924 8.2395 28.2243 7.2757C29.9914 5.96583 32.4698 7.39673 32.219 9.58206C32.0345 11.19 33.3953 12.5509 35.0033 12.3664C37.1887 12.1156 38.6195 14.594 37.3097 16.3611C36.3459 17.6614 36.844 19.5204 38.3288 20.1645C40.3468 21.04 40.3468 23.9018 38.3288 24.7773C36.844 25.4215 36.3459 27.2804 37.3097 28.5807C38.6195 30.3479 37.1887 32.8263 35.0033 32.5755C33.3953 32.3909 32.0345 33.7518 32.219 35.3598C32.4698 37.5451 29.9914 38.976 28.2243 37.6661C26.924 36.7023 25.065 37.2004 24.4208 38.6853C23.5454 40.7032 20.6836 40.7032 19.8081 38.6853C19.1639 37.2004 17.305 36.7023 16.0047 37.6661C14.2375 38.976 11.7591 37.5451 12.0099 35.3598C12.1945 33.7518 10.8336 32.3909 9.22562 32.5755C7.04028 32.8263 5.60939 30.3479 6.91925 28.5807C7.88306 27.2804 7.38495 25.4215 5.90012 24.7773C3.88217 23.9018 3.88217 21.04 5.90012 20.1645C7.38495 19.5204 7.88306 17.6614 6.91925 16.3611C5.60939 14.594 7.04028 12.1156 9.22562 12.3664C10.8336 12.5509 12.1945 11.19 12.0099 9.58206C11.7591 7.39673 14.2375 5.96583 16.0047 7.2757C17.305 8.2395 19.1639 7.74139 19.8081 6.25657Z" fill="#0FB1BF"/>
<path d="M18.5724 23.6183C17.7937 23.6183 17.1644 23.3356 16.6844 22.7703C16.2044 22.205 15.9644 21.469 15.9644 20.5623C15.9644 19.6556 16.2044 18.9196 16.6844 18.3543C17.1644 17.789 17.7937 17.5063 18.5724 17.5063C19.3511 17.5063 19.9751 17.789 20.4444 18.3543C20.9244 18.909 21.1644 19.645 21.1644 20.5623C21.1644 21.4796 20.9244 22.221 20.4444 22.7863C19.9751 23.341 19.3511 23.6183 18.5724 23.6183ZM25.3244 17.6023H26.5564L18.9084 28.8023H17.6764L25.3244 17.6023ZM18.5724 22.7063C19.0631 22.7063 19.4471 22.5196 19.7244 22.1463C20.0017 21.7623 20.1404 21.2343 20.1404 20.5623C20.1404 19.8903 20.0017 19.3676 19.7244 18.9943C19.4471 18.6103 19.0631 18.4183 18.5724 18.4183C18.0924 18.4183 17.7084 18.6103 17.4204 18.9943C17.1431 19.3783 17.0044 19.901 17.0044 20.5623C17.0044 21.2236 17.1431 21.7463 17.4204 22.1303C17.7084 22.5143 18.0924 22.7063 18.5724 22.7063ZM25.6604 28.8983C24.8817 28.8983 24.2524 28.621 23.7724 28.0663C23.3031 27.501 23.0684 26.7596 23.0684 25.8423C23.0684 24.925 23.3031 24.189 23.7724 23.6343C24.2524 23.069 24.8817 22.7863 25.6604 22.7863C26.4391 22.7863 27.0684 23.069 27.5484 23.6343C28.0284 24.1996 28.2684 24.9356 28.2684 25.8423C28.2684 26.749 28.0284 27.485 27.5484 28.0503C27.0684 28.6156 26.4391 28.8983 25.6604 28.8983ZM25.6604 27.9863C26.1404 27.9863 26.5191 27.7943 26.7964 27.4103C27.0844 27.0263 27.2284 26.5036 27.2284 25.8423C27.2284 25.181 27.0844 24.6583 26.7964 24.2743C26.5191 23.8903 26.1404 23.6983 25.6604 23.6983C25.1697 23.6983 24.7857 23.8903 24.5084 24.2743C24.2311 24.6476 24.0924 25.1703 24.0924 25.8423C24.0924 26.5143 24.2311 27.0423 24.5084 27.4263C24.7857 27.7996 25.1697 27.9863 25.6604 27.9863Z" fill="white"/>
</svg>
