<svg width="36" height="36" viewBox="0 0 36 36" fill="none" xmlns="http://www.w3.org/2000/svg">
<path d="M15.7931 4.80852C16.5124 3.15071 18.8634 3.15071 19.5826 4.80852C20.1118 6.02834 21.639 6.43755 22.7073 5.64576C24.159 4.56967 26.1951 5.74519 25.989 7.5405C25.8374 8.8615 26.9554 9.97949 28.2764 9.82789C30.0717 9.62185 31.2473 11.6579 30.1712 13.1097C29.3794 14.1779 29.7886 15.7051 31.0084 16.2343C32.6662 16.9535 32.6662 19.3046 31.0084 20.0238C29.7886 20.553 29.3794 22.0802 30.1712 23.1484C31.2473 24.6002 30.0717 26.6362 28.2764 26.4302C26.9554 26.2786 25.8374 27.3966 25.989 28.7176C26.1951 30.5129 24.159 31.6884 22.7073 30.6123C21.639 29.8205 20.1118 30.2297 19.5826 31.4496C18.8634 33.1074 16.5124 33.1074 15.7931 31.4496C15.2639 30.2297 13.7367 29.8205 12.6685 30.6123C11.2167 31.6884 9.18069 30.5129 9.38672 28.7176C9.53833 27.3966 8.42034 26.2786 7.09934 26.4302C5.30402 26.6362 4.12851 24.6002 5.2046 23.1484C5.99639 22.0802 5.58718 20.553 4.36735 20.0238C2.70955 19.3046 2.70955 16.9535 4.36735 16.2343C5.58718 15.7051 5.99639 14.1779 5.2046 13.1097C4.12851 11.6579 5.30402 9.62185 7.09934 9.82789C8.42034 9.97949 9.53833 8.8615 9.38672 7.5405C9.18069 5.74519 11.2167 4.56967 12.6685 5.64576C13.7367 6.43755 15.2639 6.02834 15.7931 4.80852Z" fill="white"/>
<path d="M14.1459 18.4714C13.3673 18.4714 12.7379 18.1887 12.2579 17.6234C11.7779 17.0581 11.5379 16.3221 11.5379 15.4154C11.5379 14.5087 11.7779 13.7727 12.2579 13.2074C12.7379 12.6421 13.3673 12.3594 14.1459 12.3594C14.9246 12.3594 15.5486 12.6421 16.0179 13.2074C16.4979 13.7621 16.7379 14.4981 16.7379 15.4154C16.7379 16.3327 16.4979 17.0741 16.0179 17.6394C15.5486 18.1941 14.9246 18.4714 14.1459 18.4714ZM20.8979 12.4554H22.1299L14.4819 23.6554H13.2499L20.8979 12.4554ZM14.1459 17.5594C14.6366 17.5594 15.0206 17.3727 15.2979 16.9994C15.5753 16.6154 15.7139 16.0874 15.7139 15.4154C15.7139 14.7434 15.5753 14.2207 15.2979 13.8474C15.0206 13.4634 14.6366 13.2714 14.1459 13.2714C13.6659 13.2714 13.2819 13.4634 12.9939 13.8474C12.7166 14.2314 12.5779 14.7541 12.5779 15.4154C12.5779 16.0767 12.7166 16.5994 12.9939 16.9834C13.2819 17.3674 13.6659 17.5594 14.1459 17.5594ZM21.2339 23.7514C20.4553 23.7514 19.8259 23.4741 19.3459 22.9194C18.8766 22.3541 18.6419 21.6127 18.6419 20.6954C18.6419 19.7781 18.8766 19.0421 19.3459 18.4874C19.8259 17.9221 20.4553 17.6394 21.2339 17.6394C22.0126 17.6394 22.6419 17.9221 23.1219 18.4874C23.6019 19.0527 23.8419 19.7887 23.8419 20.6954C23.8419 21.6021 23.6019 22.3381 23.1219 22.9034C22.6419 23.4687 22.0126 23.7514 21.2339 23.7514ZM21.2339 22.8394C21.7139 22.8394 22.0926 22.6474 22.3699 22.2634C22.6579 21.8794 22.8019 21.3567 22.8019 20.6954C22.8019 20.0341 22.6579 19.5114 22.3699 19.1274C22.0926 18.7434 21.7139 18.5514 21.2339 18.5514C20.7433 18.5514 20.3593 18.7434 20.0819 19.1274C19.8046 19.5007 19.6659 20.0234 19.6659 20.6954C19.6659 21.3674 19.8046 21.8954 20.0819 22.2794C20.3593 22.6527 20.7433 22.8394 21.2339 22.8394Z" fill="#0FB1BF"/>
</svg>
