<svg width="30" height="30" viewBox="0 0 30 30" fill="none" xmlns="http://www.w3.org/2000/svg">
<path d="M29.74 7.40585C29.628 5.67345 28.4384 4.50444 26.7028 4.50444C25.8351 4.50444 25.4012 4.29317 24.9673 3.43402C23.1758 -0.143448 18.4871 -0.678659 15.8138 2.27909C15.6879 2.41993 15.5619 2.54669 15.282 2.85655C15.0021 2.54669 14.8621 2.41993 14.7501 2.27909C12.0629 -0.678659 7.38817 -0.143448 5.59667 3.43402C5.16279 4.29317 4.72891 4.50444 3.86115 4.50444C2.12562 4.50444 0.935953 5.65937 0.823984 7.40585C0.754003 8.61712 0.781995 9.82838 0.83798 11.0397C0.879968 12.0819 1.43981 12.8425 2.30757 13.3354C2.71346 13.5608 2.82543 13.8284 2.82543 14.265C2.81144 18.1242 2.81144 21.9692 2.82543 25.8284C2.82543 28.096 4.0431 29.3495 6.28248 29.3495C9.27765 29.3636 12.2868 29.3636 15.282 29.3636V2.85655V29.3636C18.2772 29.3636 21.2863 29.3636 24.2815 29.3495C26.5349 29.3495 27.7386 28.096 27.7386 25.8284C27.7526 21.9692 27.7526 18.1242 27.7386 14.265C27.7386 13.8284 27.8505 13.5608 28.2564 13.3354C29.1382 12.8425 29.698 12.0819 29.726 11.0397C29.768 9.82838 29.81 8.60303 29.74 7.40585ZM10.3833 2.37768C11.797 2.30726 13.1826 3.16641 13.7284 4.47627C11.783 4.47627 9.86549 4.47627 7.94802 4.47627C7.76607 4.47627 7.59811 4.46219 7.40217 4.4481C7.78007 3.32134 9.06771 2.43402 10.3833 2.37768ZM14.1343 27.3213C11.475 27.3213 8.87176 27.3213 6.28248 27.3213C5.21877 27.3213 4.86887 26.9692 4.86887 25.8988C4.86887 22.1101 4.86887 18.3354 4.86887 14.5467C4.86887 14.3213 4.86887 14.096 4.86887 13.8566C8.004 13.8566 11.0552 13.8566 14.1343 13.8566C14.1343 18.3495 14.1343 22.8143 14.1343 27.3213ZM14.1763 11.6594C14.0783 11.7016 14.0363 11.7439 13.9944 11.7439C10.6353 11.758 7.2762 11.772 3.90313 11.758C3.20333 11.758 2.81144 11.3213 2.79744 10.5889C2.76945 9.72979 2.78344 8.85655 2.79744 7.9974C2.79744 6.88472 3.13335 6.56078 4.25304 6.56078C7.33219 6.56078 10.4253 6.56078 13.5045 6.56078C13.7284 6.56078 13.9384 6.58895 14.1763 6.60303C14.1763 8.33543 14.1763 9.98331 14.1763 11.6594ZM20.1806 2.37768C21.4963 2.43402 22.7839 3.32134 23.1478 4.4481C22.9659 4.46219 22.7839 4.47627 22.602 4.47627C20.6845 4.47627 18.767 4.47627 16.8216 4.47627C17.3814 3.16641 18.767 2.32134 20.1806 2.37768ZM25.6811 14.5467C25.6811 18.3354 25.6811 22.1101 25.6811 25.8988C25.6811 26.9692 25.3312 27.3213 24.2675 27.3213C21.6642 27.3213 19.0749 27.3213 16.4157 27.3213C16.4157 22.8143 16.4157 18.3636 16.4157 13.8425C19.4948 13.8425 22.546 13.8425 25.6811 13.8425C25.6811 14.0819 25.6811 14.3213 25.6811 14.5467ZM27.7666 10.5889C27.7526 11.3213 27.3607 11.758 26.6609 11.758C23.3018 11.772 19.9427 11.758 16.5696 11.7439C16.5277 11.7439 16.4857 11.7016 16.3877 11.6594C16.3877 9.98331 16.3877 8.33543 16.3877 6.60303C16.6256 6.58895 16.8356 6.56078 17.0595 6.56078C20.1387 6.56078 23.2318 6.56078 26.311 6.56078C27.4306 6.56078 27.7666 6.89881 27.7666 7.9974C27.7666 8.85655 27.7805 9.71571 27.7666 10.5889Z" fill="#0FB1BF"/>
</svg>
