<svg width="290" height="290" viewBox="0 0 290 290" fill="none" xmlns="http://www.w3.org/2000/svg">
<circle cx="144.991" cy="145.219" r="143.376" stroke="#0FB1BF" stroke-width="2"/>
<path fill-rule="evenodd" clip-rule="evenodd" d="M103.176 84.007C95.729 85.581 88.496 89.5 84.993 93.859C83.18 96.116 80.95 98.198 80.038 98.488C76.389 99.646 69.976 107.343 68.489 112.348C66.438 119.254 66.47 140.851 68.541 147.826C71.558 157.985 82.798 165.105 102 169.02C113.713 171.408 124.658 176.158 129.862 181.11C131.71 182.87 134.711 186.636 136.53 189.48C142.898 199.434 151.736 204.898 165.83 207.595C175.228 209.393 182.608 209.371 193.249 207.516C207.391 205.05 216.696 199.788 221.544 191.515C224.183 187.012 224.22 186.693 224.105 169.723C223.996 153.853 223.807 152.147 221.689 148.009C220.412 145.515 217.415 142.062 214.945 140.243C212.5 138.441 208.238 134.818 205.473 132.191C198.691 125.747 191.854 123.534 178.399 123.428C169.77 123.36 167.862 123.038 165.303 121.216C161.5 118.508 156.197 112.414 153.078 107.166C151.746 104.926 148.598 101.614 146.083 99.808C143.568 98.002 139.708 94.667 137.505 92.398C134.949 89.765 131.386 87.492 127.658 86.115C120.981 83.651 109.527 82.665 103.176 84.007ZM124.901 87.75C134.986 90.915 141.517 99.472 138.042 104.966C137.248 106.221 136.554 106.118 133.227 104.248C121.337 97.565 102.302 97.503 91.094 104.109C88.096 105.876 87.512 105.94 86.216 104.645C81.886 100.315 89.364 90.625 99.295 87.696C106.476 85.579 118.059 85.603 124.901 87.75ZM82.006 108.25C82.009 112.238 82.47 117.15 83.03 119.168C86.692 132.351 113.845 138.19 131 129.482C139.711 125.06 142 120.644 142 108.257C142 104.265 142.35 101 142.777 101C144.372 101 149.794 106.775 153.202 112.101C155.139 115.13 158.605 119.218 160.904 121.186L165.083 124.763L159.564 127.877C151.819 132.248 150 136.103 150 148.144C150 161.005 151.914 164.848 160.401 169.026C172.243 174.856 187.838 174.957 198.947 169.275C207.276 165.016 209 161.78 209 150.411C209 145.3 209.395 140.874 209.878 140.575C210.362 140.277 212.794 141.937 215.283 144.266C220.079 148.753 222.69 155.117 221.452 159.299C219.321 166.493 211.383 173.206 200.419 177.086C191.887 180.106 174.773 180.818 164.682 178.573C151.393 175.616 145.053 171.287 137.479 160C130.523 149.634 121.77 144.689 102.826 140.423C88.09 137.105 81.15 133.937 75.582 127.985C68.206 120.098 68.412 112.864 76.236 105.117C78.523 102.853 80.756 101 81.197 101C81.639 101 82.003 104.262 82.006 108.25ZM124.798 103.542C129.758 105.032 134 107.584 134 109.078C134 109.646 131.412 111.323 128.25 112.805C123.151 115.194 121.312 115.498 112 115.498C102.65 115.498 100.86 115.199 95.662 112.764C92.241 111.162 89.982 109.506 90.207 108.765C90.81 106.772 99.501 102.858 105.259 101.986C111.237 101.081 118.54 101.663 124.798 103.542ZM89.628 112.522C101.099 120.307 122.965 120.263 134.503 112.433C136.475 111.095 138.294 110 138.544 110C138.795 110 139 112.024 139 114.497C139 124.139 127.604 131 111.589 131C96.281 131 85 123.999 85 114.497C85 112.024 85.205 110 85.456 110C85.706 110 87.584 111.135 89.628 112.522ZM192.767 127.615C196.414 128.62 199.411 130.386 202.517 133.361C207.533 138.167 208.073 140.728 205.099 145.605C197.347 158.318 166.586 159.404 155.993 147.339C150.555 141.146 153.015 134.088 162.165 129.632C171.234 125.217 181.579 124.535 192.767 127.615ZM76.219 132.958C80.91 136.648 89.145 139.799 102.217 142.908C109.211 144.572 117.239 147.101 120.057 148.529C126.383 151.734 133.367 158.063 136.524 163.452C140.069 169.499 144.715 173.519 152.205 177.016C171.511 186.03 199.224 184.035 214.89 172.502C218.253 170.026 221.229 168 221.503 168C222.43 168 221.995 182.477 220.956 186.219C217.64 198.158 200.738 206.181 179 206.134C168.493 206.111 159.004 204.095 151.69 200.332C147.314 198.081 141.36 192.29 138.628 187.628C132.028 176.367 121.605 170.458 100.604 166.072C85.7 162.96 74.719 156.358 71.456 148.548C70.516 146.299 70.002 141.596 70.007 135.282C70.013 125.588 70.029 125.524 71.778 128.177C72.749 129.649 74.748 131.8 76.219 132.958ZM157.602 152.505C168.954 160.208 191.771 159.996 202.883 152.083C204.492 150.937 206.077 150 206.404 150C206.732 150 207 151.733 207 153.852C207 159.394 203.542 163.902 196.544 167.482C191.08 170.277 189.863 170.5 180.072 170.5C171.084 170.5 168.712 170.144 164.243 168.124C156.792 164.756 153 160.149 153 154.465C153 152.009 153.205 150 153.456 150C153.706 150 155.572 151.127 157.602 152.505Z" fill="#0FB1BF"/>
</svg>
