<svg width="50" height="50" viewBox="0 0 50 50" fill="none" xmlns="http://www.w3.org/2000/svg">
<circle cx="24.8378" cy="25.1271" r="23.4872" fill="#0FB1BF" stroke="#0FB1BF" stroke-width="2"/>
<path d="M36.5344 19.6941C36.254 18.643 35.4272 17.8154 34.3771 17.5347C32.4717 17.0234 24.838 17.0234 24.838 17.0234C24.838 17.0234 17.2044 17.0234 15.3014 17.5347C14.2513 17.8154 13.4245 18.643 13.1441 19.6941C12.6333 21.599 12.6333 25.5753 12.6333 25.5753C12.6333 25.5753 12.6333 29.5516 13.1441 31.4565C13.4245 32.5076 14.2513 33.3352 15.3014 33.6159C17.2044 34.1272 24.838 34.1272 24.838 34.1272C24.838 34.1272 32.4717 34.1272 34.3747 33.6159C35.4248 33.3352 36.2516 32.5076 36.532 31.4565C37.0428 29.5516 37.0428 25.5753 37.0428 25.5753C37.0428 25.5753 37.0452 21.599 36.5344 19.6941ZM22.398 29.2401V21.9106L28.7392 25.5753L22.398 29.2401Z" fill="white"/>
</svg>
