<svg width="50" height="50" viewBox="0 0 50 50" fill="none" xmlns="http://www.w3.org/2000/svg">
<path d="M36.2585 19.117C35.9781 18.0658 35.1513 17.2382 34.1012 16.9576C32.1958 16.4463 24.5622 16.4463 24.5622 16.4463C24.5622 16.4463 16.9286 16.4463 15.0255 16.9576C13.9754 17.2382 13.1486 18.0658 12.8682 19.117C12.3574 21.0219 12.3574 24.9982 12.3574 24.9982C12.3574 24.9982 12.3574 28.9744 12.8682 30.8794C13.1486 31.9305 13.9754 32.7581 15.0255 33.0387C16.9286 33.55 24.5622 33.55 24.5622 33.55C24.5622 33.55 32.1958 33.55 34.0988 33.0387C35.149 32.7581 35.9758 31.9305 36.2561 30.8794C36.7669 28.9744 36.7669 24.9982 36.7669 24.9982C36.7669 24.9982 36.7693 21.0219 36.2585 19.117ZM22.1222 28.6629V21.3334L28.4633 24.9982L22.1222 28.6629Z" fill="#0FB1BF"/>
<circle cx="24.5622" cy="24.55" r="23.4872" stroke="#0FB1BF" stroke-width="2"/>
</svg>
